<svg xmlns="http://www.w3.org/2000/svg" viewBox="0 0 280 540" fill="none">
  <rect x="10" y="0" width="260" height="530" rx="30" fill="#1F4E79" stroke="#1A3A5C" stroke-width="2"/>
  <rect x="25" y="15" width="230" height="500" rx="20" fill="#F8FAFC"/>
  <!-- Status bar -->
  <rect x="25" y="15" width="230" height="30" rx="20" fill="#1F4E79"/>
  <text x="45" y="35" font-family="system-ui" font-size="11" fill="white">9:41</text>
  <circle cx="210" cy="32" r="3" fill="#00B4D8"/>
  <circle cx="222" cy="32" r="3" fill="#00B4D8" opacity="0.5"/>
  <!-- App bar -->
  <rect x="25" y="45" width="230" height="44" fill="white"/>
  <rect x="25" y="45" width="230" height="44" fill="#1F4E79"/>
  <text x="140" y="72" text-anchor="middle" font-family="system-ui" font-size="14" font-weight="600" fill="white">DocFlow</text>
  <!-- Search bar -->
  <rect x="40" y="100" width="200" height="36" rx="18" fill="white" stroke="#E5E7EB" stroke-width="1"/>
  <text x="55" y="123" font-family="system-ui" font-size="12" fill="#9CA3AF">Search calculations...</text>
  <!-- Greeting -->
  <text x="40" y="160" font-family="system-ui" font-size="16" font-weight="700" fill="#1A1A2E">Good morning, Dr.</text>
  <text x="40" y="180" font-family="system-ui" font-size="11" fill="#6B7280">Evidence-based calculations at your fingertips</text>
  <!-- Quick action cards -->
  <rect x="40" y="195" width="95" height="65" rx="12" fill="white" stroke="#E5E7EB" stroke-width="1"/>
  <rect x="50" y="203" width="16" height="16" rx="4" fill="#F0F4FF"/>
  <text x="50" y="235" font-family="system-ui" font-size="13" font-weight="600" fill="#1A1A2E">Quick Calc</text>
  <text x="50" y="250" font-family="system-ui" font-size="10" fill="#6B7280">15 calculators</text>
  <rect x="145" y="195" width="95" height="65" rx="12" fill="white" stroke="#E5E7EB" stroke-width="1"/>
  <rect x="155" y="203" width="16" height="16" rx="4" fill="#F0F4FF"/>
  <text x="155" y="235" font-family="system-ui" font-size="13" font-weight="600" fill="#1A1A2E">Patients</text>
  <text x="155" y="250" font-family="system-ui" font-size="10" fill="#6B7280">0 saved</text>
  <!-- Categories section -->
  <text x="40" y="288" font-family="system-ui" font-size="14" font-weight="600" fill="#1A1A2E">Categories</text>
  <!-- Category cards -->
  <rect x="40" y="300" width="200" height="44" rx="10" fill="white" stroke="#E5E7EB" stroke-width="1"/>
  <text x="56" y="318" font-size="14">🧍</text>
  <text x="80" y="327" font-family="system-ui" font-size="13" fill="#1A1A2E">Body Metrics</text>
  <text x="210" y="327" font-family="system-ui" font-size="11" fill="#6B7280">3</text>
  <rect x="40" y="350" width="200" height="44" rx="10" fill="white" stroke="#E5E7EB" stroke-width="1"/>
  <text x="56" y="368" font-size="14">💧</text>
  <text x="80" y="377" font-family="system-ui" font-size="13" fill="#1A1A2E">Fluids &amp; Drips</text>
  <text x="210" y="377" font-family="system-ui" font-size="11" fill="#6B7280">3</text>
  <rect x="40" y="400" width="200" height="44" rx="10" fill="white" stroke="#E5E7EB" stroke-width="1"/>
  <text x="56" y="418" font-size="14">❤️</text>
  <text x="80" y="427" font-family="system-ui" font-size="13" fill="#1A1A2E">Cardiac</text>
  <text x="210" y="427" font-family="system-ui" font-size="11" fill="#6B7280">3</text>
  <!-- Bottom nav -->
  <rect x="25" y="465" width="230" height="50" rx="0" fill="white" stroke="#E5E7EB" stroke-width="1"/>
  <text x="65" y="497" text-anchor="middle" font-family="system-ui" font-size="10" fill="#1F4E79" font-weight="600">Home</text>
  <text x="140" y="497" text-anchor="middle" font-family="system-ui" font-size="10" fill="#6B7280">Saved</text>
  <text x="215" y="497" text-anchor="middle" font-family="system-ui" font-size="10" fill="#6B7280">Settings</text>
  <!-- Notch -->
  <rect x="110" y="2" width="60" height="16" rx="8" fill="#1A3A5C"/>
</svg>